<svg width="48" height="48" viewBox="0 0 48 48" fill="none" xmlns="http://www.w3.org/2000/svg">
<path fill-rule="evenodd" clip-rule="evenodd" d="M14.5 35.4381V35.5H32.5V35.4855C36.9617 35.2267 40.5 31.5266 40.5 27C40.5 22.3056 36.6944 18.5 32 18.5C31.7095 18.5 31.4225 18.5146 31.1395 18.543C30.0855 15.0465 26.8401 12.5 23 12.5C18.8008 12.5 15.3128 15.545 14.6236 19.5475C10.6176 19.9839 7.5 23.3779 7.5 27.5C7.5 31.5796 10.5537 34.946 14.5 35.4381Z" stroke="#0041FF" stroke-width="2" stroke-linecap="round" stroke-linejoin="round"/>
<path d="M13 35V30.4783H16.2304C16.3908 29.952 16.6058 29.4487 16.869 28.9746L14.5843 26.7441L17.8593 23.5467L20.144 25.7772C20.6296 25.5203 21.1452 25.3104 21.6842 25.1538V22H26.3158V25.1538C26.8548 25.3104 27.3704 25.5203 27.856 25.7772L30.1407 23.5467L33.4157 26.7441L31.131 28.9746C31.3942 29.4487 31.6092 29.952 31.7696 30.4783H35V35" stroke="#0041FF" stroke-width="2" stroke-linecap="round" stroke-linejoin="round"/>
<path d="M26.2162 34.9354C26.7031 34.4113 27 33.7138 27 32.9482C27 31.32 25.6569 30 24 30C22.3431 30 21 31.32 21 32.9482C21 33.7457 21.3222 34.4693 21.8456 35" stroke="#0041FF" stroke-width="2" stroke-linecap="round" stroke-linejoin="round"/>
</svg>
